<svg width="1187" height="1671" xmlns="http://www.w3.org/2000/svg" xmlns:xlink="http://www.w3.org/1999/xlink" overflow="hidden"><defs><clipPath id="clip0"><rect x="0" y="0" width="1187" height="1671"/></clipPath></defs><g clip-path="url(#clip0)"><rect x="0" y="0" width="1187" height="1671.27" fill="#FFFFFF"/><path d="M7.49995 30.8385C7.49995 17.9496 17.9468 7.50114 30.8336 7.50114L571.167 7.50114C584.054 7.50114 594.501 17.9496 594.501 30.8385L594.5 124.187C594.5 137.076 584.053 147.524 571.166 147.524L30.8336 147.523C17.9468 147.523 7.49995 137.075 7.49995 124.186Z" stroke="#1F4E79" stroke-width="1.33352" stroke-miterlimit="8" fill="#DEEBF7" fill-rule="evenodd"/><text font-family="Arial,Arial_MSFontService,sans-serif" font-weight="400" font-size="37" transform="matrix(1 0 0 1.00016 105.821 91)">1. Identify search terms</text><path d="M7.49995 332.053C7.49995 319.072 18.0212 308.549 30.9998 308.549L571 308.549C583.979 308.549 594.5 319.072 594.5 332.053L594.5 426.068C594.5 439.048 583.979 449.571 571 449.571L30.9998 449.571C18.0212 449.571 7.49995 439.048 7.49995 426.068Z" stroke="#1F4E79" stroke-width="1.33352" stroke-miterlimit="8" fill="#DEEBF7" fill-rule="evenodd"/><text font-family="Arial,Arial_MSFontService,sans-serif" font-weight="400" font-size="37" transform="matrix(1 0 0 1.00016 33.9773 392)">2. Search the medical dictionary</text><path d="M7.49995 638.935C7.49995 626.046 17.9468 615.598 30.8336 615.598L571.167 615.598C584.054 615.598 594.501 626.046 594.501 638.935L594.5 732.283C594.5 745.172 584.053 755.621 571.166 755.621L30.8336 755.62C17.9468 755.62 7.49995 745.172 7.49995 732.283Z" stroke="#1F4E79" stroke-width="1.33352" stroke-miterlimit="8" fill="#DEEBF7" fill-rule="evenodd"/><text font-family="Arial,Arial_MSFontService,sans-serif" font-weight="400" font-size="37" transform="matrix(1 0 0 1.00016 74.4826 699)">4. Manually screen</text><text font-family="Arial,Arial_MSFontService,sans-serif" font-weight="400" font-size="37" transform="matrix(1 0 0 1.00016 398.861 699)">codelist</text><path d="M7.49995 943.984C7.49995 931.095 17.9468 920.646 30.8336 920.646L571.167 920.646C584.054 920.646 594.501 931.095 594.501 943.984L594.5 1037.33C594.5 1050.22 584.053 1060.67 571.166 1060.67L30.8336 1060.67C17.9468 1060.67 7.49995 1050.22 7.49995 1037.33Z" stroke="#1F4E79" stroke-width="1.33352" stroke-miterlimit="8" fill="#DEEBF7" fill-rule="evenodd"/><text font-family="Arial,Arial_MSFontService,sans-serif" font-weight="400" font-size="37" transform="matrix(1 0 0 1.00016 48.2323 982)">5. SNOMED CT Concept ID to</text><text font-family="Arial,Arial_MSFontService,sans-serif" font-weight="400" font-size="37" transform="matrix(1 0 0 1.00016 78.7299 1027)">identify synonymous terms</text><path d="M7.49995 1245.03C7.49995 1232.14 17.9468 1221.69 30.8336 1221.69L571.167 1221.69C584.054 1221.69 594.501 1232.14 594.501 1245.03L594.5 1338.38C594.5 1351.27 584.053 1361.72 571.166 1361.72L30.8336 1361.72C17.9468 1361.72 7.49995 1351.27 7.49995 1338.38Z" stroke="#1F4E79" stroke-width="1.33352" stroke-miterlimit="8" fill="#DEEBF7" fill-rule="evenodd"/><text font-family="Arial,Arial_MSFontService,sans-serif" font-weight="400" font-size="37" transform="matrix(1 0 0 1.00016 68.3985 1282)">7. Export</text><text font-family="Arial,Arial_MSFontService,sans-serif" font-weight="400" font-size="37" transform="matrix(1 0 0 1.00016 228.254 1282)">codelist</text><text font-family="Arial,Arial_MSFontService,sans-serif" font-weight="400" font-size="37" transform="matrix(1 0 0 1.00016 365.44 1282)">for clinical</text><text font-family="Arial,Arial_MSFontService,sans-serif" font-weight="400" font-size="37" transform="matrix(1 0 0 1.00016 246.01 1327)">review</text><path d="M7.49995 1547.25C7.49995 1534.27 18.0212 1523.74 30.9998 1523.74L571 1523.74C583.979 1523.74 594.5 1534.27 594.5 1547.25L594.5 1641.26C594.5 1654.24 583.979 1664.76 571 1664.76L30.9998 1664.76C18.0212 1664.76 7.49995 1654.24 7.49995 1641.26Z" stroke="#385723" stroke-width="1.33352" stroke-miterlimit="8" fill="#C5E0B4" fill-rule="evenodd"/><text font-family="Arial,Arial_MSFontService,sans-serif" font-weight="400" font-size="37" transform="matrix(1 0 0 1.00016 43.395 1585)">8. Restrict</text><text font-family="Arial,Arial_MSFontService,sans-serif" font-weight="400" font-size="37" transform="matrix(1 0 0 1.00016 221.92 1585)">codelist</text><text font-family="Arial,Arial_MSFontService,sans-serif" font-weight="400" font-size="37" transform="matrix(1 0 0 1.00016 359.106 1585)">to approved</text><text font-family="Arial,Arial_MSFontService,sans-serif" font-weight="400" font-size="37" transform="matrix(1 0 0 1.00016 250.177 1630)">codes</text><path d="M818 452.572 1111 452.572C1149.38 452.572 1180.5 490.186 1180.5 536.585 1180.5 582.984 1149.38 620.599 1111 620.599L818 620.599C779.616 620.599 748.5 582.984 748.5 536.585 748.5 490.186 779.616 452.572 818 452.572Z" stroke="#843C0C" stroke-width="1.33352" stroke-miterlimit="8" fill="#F8CBAD" fill-rule="evenodd"/><text font-family="Arial,Arial_MSFontService,sans-serif" font-weight="400" font-size="37" transform="matrix(1 0 0 1.00016 823.499 527)">3. Exclude broad</text><text font-family="Arial,Arial_MSFontService,sans-serif" font-weight="400" font-size="37" transform="matrix(1 0 0 1.00016 829.666 572)">undesired terms</text><path d="M818 1066.67 1111 1066.67C1149.38 1066.67 1180.5 1104.28 1180.5 1150.68 1180.5 1197.08 1149.38 1234.7 1111 1234.7L818 1234.7C779.616 1234.7 748.5 1197.08 748.5 1150.68 748.5 1104.28 779.616 1066.67 818 1066.67Z" stroke="#843C0C" stroke-width="1.33352" stroke-miterlimit="8" fill="#F8CBAD" fill-rule="evenodd"/><text font-family="Arial,Arial_MSFontService,sans-serif" font-weight="400" font-size="37" transform="matrix(1 0 0 1.00016 818.361 1142)">6. Automate code</text><text font-family="Arial,Arial_MSFontService,sans-serif" font-weight="400" font-size="37" transform="matrix(1 0 0 1.00016 847.339 1187)">categorisation</text><path d="M260.5 277.544 275.5 277.544 275.5 147.523 305.5 147.523 305.5 277.544 320.5 277.544 290.5 307.549Z" stroke="#000000" stroke-width="1.33352" stroke-miterlimit="8" fill-rule="evenodd"/><path d="M260.5 583.593 275.5 583.593 275.5 450.572 305.5 450.572 305.5 583.593 320.5 583.593 290.5 613.597Z" stroke="#000000" stroke-width="1.33352" stroke-miterlimit="8" fill-rule="evenodd"/><path d="M260.5 889.641 275.5 889.641 275.5 757.62 305.5 757.62 305.5 889.641 320.5 889.641 290.5 919.646Z" stroke="#000000" stroke-width="1.33352" stroke-miterlimit="8" fill-rule="evenodd"/><path d="M260.5 1190.69 275.5 1190.69 275.5 1060.67 305.5 1060.67 305.5 1190.69 320.5 1190.69 290.5 1220.69Z" stroke="#000000" stroke-width="1.33352" stroke-miterlimit="8" fill-rule="evenodd"/><path d="M260.5 1492.74 275.5 1492.74 275.5 1361.72 305.5 1361.72 305.5 1492.74 320.5 1492.74 290.5 1522.74Z" stroke="#000000" stroke-width="1.33352" stroke-miterlimit="8" fill-rule="evenodd"/><path d="M0 67.1023 367.552 67.1023 367.552 20 354 20 374 0 394 20 380.449 20 380.449 80 0 80Z" stroke="#000000" stroke-width="1.33352" stroke-miterlimit="8" fill="#4472C4" fill-rule="evenodd" transform="matrix(1 0 0 -1.00016 594.5 451.572)"/><path d="M0 67.9411 367.221 67.9411 367.221 20.2499 353.5 20.2499 373.75 0 394 20.2499 380.279 20.2499 380.279 80.9999 0 80.9999Z" stroke="#000000" stroke-width="1.33352" stroke-miterlimit="8" fill="#4472C4" fill-rule="evenodd" transform="matrix(1 0 0 -1.00016 594.5 1065.67)"/><path d="M0 366.941 54.2204 366.941 54.2204 20.25 40.5002 20.25 60.7499 0 81 20.25 67.2794 20.25 67.2794 380 0 380Z" stroke="#000000" stroke-width="1.33352" stroke-miterlimit="8" fill="#4472C4" fill-rule="evenodd" transform="matrix(6.12323e-17 1.00016 1 -6.12421e-17 594.5 1234.7)"/><path d="M0 365.168 61.5838 365.168 61.5838 22.9999 46.0002 22.9999 69.0001 0 92 22.9999 76.416 22.9999 76.416 380 0 380Z" stroke="#000000" stroke-width="1.33352" stroke-miterlimit="8" fill="#4472C4" fill-rule="evenodd" transform="matrix(6.12323e-17 1.00016 1 -6.12421e-17 594.5 620.599)"/></g></svg>